<?xml version="1.0" encoding="UTF-8" standalone="no"?>
<svg width="551px" height="276px" viewBox="0 0 551 276" version="1.1" xmlns="http://www.w3.org/2000/svg" xmlns:xlink="http://www.w3.org/1999/xlink" xmlns:sketch="http://www.bohemiancoding.com/sketch/ns">
    <!-- Generator: Sketch 3.3.3 (12081) - http://www.bohemiancoding.com/sketch -->
    <title>Shape</title>
    <desc>Created with Sketch.</desc>
    <defs></defs>
    <g id="Page-1" stroke="none" stroke-width="1" fill="none" fill-rule="evenodd" sketch:type="MSPage">
        <g id="email" sketch:type="MSLayerGroup" fill="#FEFEFE">
            <g id="Group" sketch:type="MSShapeGroup">
                <path d="M501.613,0.013 L49.181,0.013 C33.397,0.013 21.262,5.343 12.761,15.992 C4.253,26.646 0.006,39.97 0.006,55.949 C0.006,68.856 5.642,82.841 16.909,97.908 C28.176,112.969 40.165,124.799 52.87,133.404 C59.835,138.325 80.839,152.927 115.882,177.205 C134.799,190.314 151.25,201.74 165.387,211.6 C177.437,219.996 187.829,227.267 196.409,233.301 C197.394,233.992 198.943,235.1 200.999,236.57 C203.214,238.161 206.017,240.18 209.475,242.677 C216.134,247.493 221.666,251.386 226.072,254.36 C230.472,257.335 235.803,260.658 242.057,264.348 C248.306,268.033 254.2,270.804 259.732,272.647 C265.265,274.489 270.387,275.413 275.099,275.413 L275.405,275.413 L275.711,275.413 C280.422,275.413 285.545,274.489 291.079,272.647 C296.61,270.804 302.499,268.039 308.753,264.348 C315.001,260.658 320.325,257.328 324.739,254.36 C329.145,251.386 334.677,247.494 341.337,242.677 C344.788,240.18 347.591,238.16 349.806,236.575 C351.863,235.099 353.411,233.998 354.402,233.301 C361.086,228.65 371.502,221.409 385.506,211.685 C410.988,193.98 448.516,167.921 498.248,133.404 C513.205,122.957 525.701,110.35 535.744,95.601 C545.769,80.852 550.795,65.381 550.795,49.193 C550.795,35.668 545.922,24.095 536.197,14.456 C526.461,4.829 514.932,0.013 501.613,0.013 L501.613,0.013 Z" id="Shape"></path>
            </g>
        </g>
    </g>
</svg>