<?xml version="1.0" encoding="UTF-8" standalone="no"?>
<svg width="512px" height="384px" viewBox="0 0 512 384" version="1.1" xmlns="http://www.w3.org/2000/svg" xmlns:xlink="http://www.w3.org/1999/xlink" xmlns:sketch="http://www.bohemiancoding.com/sketch/ns">
    <!-- Generator: Sketch 3.3.3 (12081) - http://www.bohemiancoding.com/sketch -->
    <title>email27</title>
    <desc>Created with Sketch.</desc>
    <defs></defs>
    <g id="Page-1" stroke="none" stroke-width="1" fill="none" fill-rule="evenodd" sketch:type="MSPage">
        <g id="email27" sketch:type="MSLayerGroup" fill="#FEFEFE">
            <path d="M448,0 L64,0 C28.656,0 0,28.656 0,64 L0,320 C0,355.344 28.656,384 64,384 L448,384 C483.344,384 512,355.344 512,320 L512,64 C512,28.656 483.344,0 448,0 L448,0 Z M342.656,170.781 L478.125,54.687 C479.063,57.687 480,60.687 480,64 L480,320 C480,322.219 479.156,324.188 478.719,326.281 L342.656,170.781 L342.656,170.781 Z M448,32 C450.125,32 452,32.813 454,33.219 L256,202.938 L58,33.219 C60,32.813 61.875,32 64,32 L448,32 L448,32 Z M33.266,326.25 C32.828,324.156 32,322.219 32,320 L32,64 C32,60.687 32.953,57.687 33.891,54.687 L169.313,170.75 L33.266,326.25 L33.266,326.25 Z M64,352 C60.766,352 57.828,351.062 54.875,350.156 L193.625,191.593 L245.594,236.124 C248.578,238.719 252.297,240 256,240 C259.703,240 263.422,238.719 266.406,236.125 L318.375,191.594 L457.125,350.157 C454.188,351.062 451.25,352 448,352 L64,352 L64,352 Z" id="Shape" sketch:type="MSShapeGroup"></path>
        </g>
    </g>
</svg>