<?xml version="1.0" encoding="UTF-8" standalone="no"?>
<svg width="579px" height="490px" viewBox="0 0 579 490" version="1.1" xmlns="http://www.w3.org/2000/svg" xmlns:xlink="http://www.w3.org/1999/xlink" xmlns:sketch="http://www.bohemiancoding.com/sketch/ns">
    <!-- Generator: Sketch 3.3.3 (12081) - http://www.bohemiancoding.com/sketch -->
    <title>github</title>
    <desc>Created with Sketch.</desc>
    <defs></defs>
    <g id="Page-1" stroke="none" stroke-width="1" fill="none" fill-rule="evenodd" sketch:type="MSPage">
        <g id="github" sketch:type="MSLayerGroup" transform="translate(-1.000000, 0.000000)" fill="#FEFEFE">
            <g id="Group" sketch:type="MSShapeGroup">
                <path d="M534.32,116.379 C534.852,89.861 529.026,63.049 524.296,36.648 C522.668,27.56 519.369,18.778 516.119,10.161 C513.671,3.674 506.443,-0.457 499.785,0.963 C495.476,1.881 491.602,2.775 487.845,4.011 C448.518,16.949 412.104,35.871 377.122,57.855 C372.422,60.805 365.586,61.87 359.912,61.454 C346.338,60.462 332.911,57.084 319.343,56.441 C285.763,54.85 252.25,55.872 218.975,61.692 C214.349,62.5 208.259,61.704 204.416,59.22 C166.27,34.537 126.582,13.411 81.937,1.55 C75.235,-0.231 68.338,0.712 66.643,3.374 C65.608,5.002 64.672,6.691 64.158,8.502 C59.335,25.448 53.619,42.309 50.816,59.616 C47.475,80.271 44.262,101.551 45.847,122.181 C46.845,135.149 43.264,143.118 36.178,152.218 C12.407,182.757 1.703,217.861 1.048,256.35 C0.485,289.269 4.842,321.35 14.867,352.82 C30.222,401.039 59.873,437.226 104.519,460.77 C141.227,480.127 181.227,487.588 222.158,489.026 C259.05,490.318 296.014,489.222 332.948,489.43 C369.969,489.638 406.48,486.339 441.896,474.797 C477.343,463.248 508.017,444.613 531.818,415.311 C566.194,372.985 576.897,323.125 579.094,270.346 C580.778,229.985 572.552,192.017 548.916,158.999 C539.332,145.603 533.959,134.097 534.32,116.379 L534.32,116.379 Z M463.047,425.641 C447.171,439.369 427.759,445.868 407.887,450.617 C368.897,459.932 329.197,462.252 289.368,460.513 C249.998,462.22 211.081,459.766 172.776,450.751 C144.52,444.105 118.724,432.93 100.744,408.676 C72.133,370.077 64.82,296.619 112.097,256.528 C124.153,246.307 137.599,239.82 153.487,238.811 C171.021,237.691 188.561,235.506 206.082,235.714 C250.281,236.24 294.46,238.438 338.653,238.768 C358.837,238.914 379.162,234.208 399.198,235.42 C417.405,236.522 436.549,239.875 453.073,247.201 C480.619,259.416 495.447,284.184 499.927,313.193 C506.597,356.326 497.796,395.586 463.047,425.641 L463.047,425.641 Z" id="Shape"></path>
                <ellipse id="Oval" cx="391.026" cy="341.552" rx="42.124" ry="56.298"></ellipse>
                <ellipse id="Oval" cx="190.028" cy="341.552" rx="42.13" ry="56.298"></ellipse>
            </g>
        </g>
    </g>
</svg>